<?xml version="1.0" encoding="utf-8"?>
<!-- Generator: Adobe Illustrator 25.3.1, SVG Export Plug-In . SVG Version: 6.00 Build 0)  -->
<svg version="1.1" xmlns="http://www.w3.org/2000/svg" xmlns:xlink="http://www.w3.org/1999/xlink" x="0px" y="0px"
	 viewBox="0 0 81 20.13" style="enable-background:new 0 0 81 20.13;" xml:space="preserve">
<style type="text/css">
	.st0{fill:#FFFFFF;}
</style>
<g id="Layer_1">
	<path class="st0" d="M33.57,15.41h-6.68v-3.36h6.83h0.02l0.02,0c0.85,0.1,1.5,0.81,1.5,1.65C35.24,14.61,34.48,15.4,33.57,15.41
		 M26.89,4.37h6.99h0.03l0.02,0c0.79,0.14,1.37,0.81,1.37,1.6c0,0.81-0.62,1.57-1.44,1.68l-6.98,0.01L26.89,4.37z M36.83,9.74
		c2.56-0.85,3.02-3,3.02-4.75c0-2.68-1.89-4.99-7.48-4.99L21.94,0v20.09h10.4c5.62,0,7.69-2.88,7.69-5.78
		C40.02,10.82,36.83,9.74,36.83,9.74 M63.38,0v20.13H81l0-4.59H68.28v-3.51h11.46V7.63H68.28l-0.01-3.24h12.71L81,0H63.38z
		 M55.79,6.26c-0.09,0.66-0.75,1.38-1.57,1.38l-6.88,0V4.43h6.88c0.82,0,1.47,0.6,1.57,1.4V6.26z M53.12,0.03H42.47v20.1h4.89V12
		l5.39,0c1.54,0.02,2.74,1.29,2.74,2.85v5.27l4.79,0l-0.01-6.49c0-3.01-2.9-3.89-2.9-3.89s2.97-0.89,2.97-4.44
		C60.34,0.94,56.6,0.03,53.12,0.03 M18.76,15.27c-0.07,0-6.69,0.13-8.97-0.09c-3.68-0.36-4.98-3.09-4.98-5.31
		c0-2.77,1.89-4.82,4.82-5.2c1.39-0.18,9.01-0.1,9.1-0.1l0.16,0L18.9,0h-0.16l-8.63,0.02C9.15,0.08,7.56,0.17,5.93,0.84
		C4.36,1.56,3,2.66,1.98,4.03C0.69,5.78,0,7.85,0,10.02c0,0.68,0.05,1.36,0.16,2.01c0.62,3.05,2.62,5.57,5.48,6.92
		c0.97,0.43,2.46,0.94,5.47,1.11c0.01,0,1.62,0.03,1.62,0.03c0,0,6.01,0.01,6.01,0.01h0.16l0.02-4.84L18.76,15.27z"/>
</g>
<g id="_x3C_Layer_x3E_">
</g>
</svg>
